<svg xmlns="http://www.w3.org/2000/svg" viewBox="-19669.648 4214.034 58.742 52.754">
  <defs>
    <style>
      .zoom_plus {
        fill: #000;
        stroke: #000;
        stroke-width: 2px;

      }
      path {
        fill: black;
      }
    </style>
  </defs>
  <path id="path-28"
        class="zoom_plus"
        d="M18250.268,8635.523a20.326,20.326,0,0,1-12.387,6.117,19.616,19.616,
        0,0,1-14.711-4.292,20.584,20.584,0,0,1,10.928-36.14,19.616,19.616,0,0,1,
        14.711,4.292,20.369,20.369,0,0,1,3.861,27.037l19.5,15.886-2.4,
        2.984ZM18234.455,8605a16.588,16.588,0,0,0-11.07,6.1l-.027.036a16.584,
        16.584,0,0,0,2.215,23.227,15.961,15.961,0,0,0,11.951,3.49,16.731,16.731,
        0,0,0,8.883-29.367,15.914,15.914,0,0,0-10.1-3.595A16.483,16.483,0,0,0,
        18234.455,8605Zm.545,24.841v-7.476h-7.441v-2.32H18235v-7.475h2.32v7.475h7.443v2.32h-7.443v7.476Z"
        transform="translate(-37884.46 -4386.07)"/>
</svg>
